<?xml version="1.0" encoding="UTF-8"?>
<svg xmlns="http://www.w3.org/2000/svg" viewBox="0 0 64 64">
  <defs>
    <linearGradient id="bg" x1="0" y1="0" x2="0" y2="1">
      <stop offset="0" stop-color="#fdfcf8"/>
      <stop offset="1" stop-color="#f0e9de"/>
    </linearGradient>
  </defs>
  <rect x="0" y="0" width="64" height="64" rx="14" fill="url(#bg)"/>
  <g transform="translate(-0.57,53.07) scale(0.05656,-0.05656)">
    <path d="M196 -43Q155 -43 118.0 -31.0Q81 -19 57.5 5.0Q34 29 34 65Q34 102 66.5 132.0Q99 162 159 162Q222 162 278.5 133.5Q335 105 398 72Q451 123 492.5 190.5Q534 258 572.5 333.0Q611 408 652.0 482.5Q693 557 744 621Q753 632 762.0 643.5Q771 655 781 666Q727 698 665.0 715.5Q603 733 537 733Q455 733 385.0 712.0Q315 691 263.5 655.5Q212 620 183.0 575.5Q154 531 154 484Q154 442 171.5 414.5Q189 387 216.0 374.0Q243 361 269 361Q304 361 329.0 374.5Q354 388 370.0 408.0Q386 428 394.0 447.0Q402 466 403 478Q403 485 412 485Q426 485 423 468Q418 428 393.0 398.5Q368 369 333.0 352.5Q298 336 261 336Q217 336 181.0 352.5Q145 369 123.5 402.5Q102 436 102 485Q102 550 137.0 601.5Q172 653 233.0 689.0Q294 725 373.0 744.0Q452 763 540 763Q608 763 677.0 746.5Q746 730 808 697Q834 726 861.5 748.5Q889 771 918 783Q931 788 939 788Q945 788 945 785Q945 780 922 760Q909 748 891.0 723.5Q873 699 854 670Q914 631 960.5 575.5Q1007 520 1034.0 449.5Q1061 379 1061 293Q1061 209 1032.0 146.5Q1003 84 953.0 43.0Q903 2 838.0 -18.5Q773 -39 701 -39Q616 -39 543.5 -16.0Q471 7 409 36Q360 -3 307.5 -23.0Q255 -43 196 -43ZM786 563Q765 530 735.0 479.5Q705 429 668.0 370.0Q631 311 591.0 252.0Q551 193 510.5 141.5Q470 90 432 55Q485 29 549.0 10.0Q613 -9 694 -9Q786 -9 854.0 29.5Q922 68 960.0 134.5Q998 201 998 285Q998 394 952.0 483.5Q906 573 829 633Q816 612 805.0 593.5Q794 575 786 563ZM196 -12Q247 -15 295.5 6.5Q344 28 376 53Q316 82 265.5 106.0Q215 130 172 130Q137 130 118.0 109.5Q99 89 99 64Q99 32 124.5 11.0Q150 -10 196 -12Z" fill="#221811"/>
  </g>
  <path fill="#963e3c" transform="translate(49.4,13.2) scale(0.62)"
        d="M0,2.6 C-1.9,-1.6 -7.6,-1.2 -7.6,3.1 C-7.6,6.2 -3.4,9.4 0,12.2 C3.4,9.4 7.6,6.2 7.6,3.1 C7.6,-1.2 1.9,-1.6 0,2.6 Z"/>
</svg>
